# Blender v2.80 (sub 75) OBJ File: 'Jet2.blend'
# www.blender.org
mtllib Jet2.mtl
o Cube_Cube.002
v 1.354878 -0.242368 1.966322
v 1.286315 0.795079 0.972919
v 1.399352 -0.238376 -0.763943
v 1.078749 0.867855 -0.852986
v 0.965778 -0.276874 -1.806087
v 0.854233 0.713052 -1.890697
v 0.545853 -0.116411 -2.625584
v 0.443762 0.182907 -2.695741
v 1.969173 0.854789 0.382580
v 2.179315 0.451829 1.438941
v 1.965961 0.795762 4.930545
v 2.394999 0.675207 0.441316
v 5.169443 2.235817 -4.130776
v 5.230477 2.310466 -2.791577
v 3.208423 0.307036 0.252845
v 3.099732 0.382754 -2.462830
v 3.379656 0.504281 0.267351
v 4.285699 -0.853370 -0.346512
v 4.250345 -0.926022 -1.365162
v 3.645778 -0.047474 -1.031297
v 3.819289 -0.128999 -2.409932
v 3.906112 0.027964 -1.111201
v 0.000000 0.227361 4.312314
v 0.000000 -0.724802 -0.940576
v 0.000000 1.115742 -0.940576
v -1.354878 -0.242368 1.966322
v -1.286315 0.795079 0.972919
v -1.399352 -0.238376 -0.763943
v -1.078749 0.867855 -0.852986
v 0.000000 0.783544 -2.017588
v 0.000000 -0.625881 -2.100638
v -0.965778 -0.276874 -1.806087
v -0.854233 0.713052 -1.890697
v 0.000000 0.292663 -2.779515
v 0.000000 -0.312138 -2.635890
v -0.545853 -0.116411 -2.625584
v -0.443762 0.182907 -2.695741
v 0.000000 0.414434 -2.156004
v -1.969173 0.854789 0.382580
v -2.179315 0.451829 1.438941
v -1.965961 0.795762 4.930545
v -2.394999 0.675207 0.441316
v -5.169443 2.235817 -4.130776
v -5.230477 2.310466 -2.791577
v -3.208423 0.307036 0.252845
v -3.099732 0.382754 -2.462830
v -3.379656 0.504281 0.267351
v -4.285699 -0.853370 -0.346512
v -4.250345 -0.926022 -1.365162
v -3.645778 -0.047474 -1.031297
v -3.819289 -0.128999 -2.409932
v -3.906112 0.027964 -1.111201
vt 0.875000 0.500000
vt 0.625000 0.500000
vt 0.875000 0.500000
vt 0.375000 0.250000
vt 0.625000 0.500000
vt 0.375000 0.500000
vt 0.875000 0.500000
vt 0.625000 0.000000
vt 0.375000 0.250000
vt 0.625000 0.250000
vt 0.625000 0.500000
vt 0.625000 0.500000
vt 0.625000 0.250000
vt 0.625000 0.500000
vt 0.625000 0.250000
vt 0.375000 0.250000
vt 0.625000 0.500000
vt 0.375000 0.500000
vt 0.375000 0.500000
vt 0.625000 0.750000
vt 0.625000 0.500000
vt 0.375000 0.750000
vt 0.375000 1.000000
vt 0.125000 0.500000
vt 0.125000 0.750000
vt 0.375000 0.500000
vt 0.125000 0.500000
vt 0.375000 0.500000
vt 0.625000 0.750000
vt 0.375000 0.750000
vt 0.375000 0.500000
vt 0.375000 0.750000
vt 0.375000 0.500000
vt 0.375000 0.750000
vt 0.625000 0.750000
vt 0.625000 0.500000
vt 0.375000 0.750000
vt 0.375000 0.750000
vt 0.375000 0.500000
vt 0.375000 0.750000
vt 0.375000 0.529928
vt 0.375000 0.720072
vt 0.375000 0.500000
vt 0.375000 0.500000
vt 0.625000 0.500000
vt 0.625000 0.750000
vt 0.375000 0.750000
vt 0.625000 0.750000
vt 0.375000 0.500000
vt 0.375000 0.500000
vt 0.375000 0.750000
vt 0.375000 0.750000
vt 0.375000 0.750000
vt 0.625000 0.750000
vt 0.375000 0.750000
vt 0.375000 0.500000
vt 0.375000 0.750000
vt 0.375000 0.750000
vt 0.375000 0.529928
vt 0.375000 0.720072
vt 0.875000 0.750000
vt 0.125000 0.500000
vt 0.375000 0.500000
vt 0.375000 0.500000
vt 0.625000 0.500000
vt 0.375000 0.500000
vn 0.1217 0.9485 -0.2926
vn 0.0895 -0.1982 -0.9761
vn 0.2962 0.8029 -0.5173
vn 1.0000 0.0000 0.0000
vn -0.2346 0.9528 -0.1929
vn -0.1255 -0.2292 -0.9652
vn -0.1536 0.7875 -0.5969
vn 0.2346 0.9528 -0.1929
vn 0.1255 -0.2292 -0.9652
vn 0.1536 0.7875 -0.5969
vn -0.1217 0.9485 -0.2926
vn -0.0895 -0.1982 -0.9761
vn -0.2962 0.8029 -0.5173
vn 0.9705 0.0903 -0.2234
vn -0.0481 0.9978 0.0452
vn 0.8181 0.4250 0.3874
vn -0.0323 -0.9835 0.1783
vn 0.2229 0.9747 0.0135
vn 0.8328 0.1599 -0.5299
vn 0.3384 -0.9350 -0.1063
vn 0.4140 -0.8296 -0.3746
vn 0.9405 -0.2100 -0.2672
vn -0.9810 0.0965 0.1684
vn 0.6812 -0.7233 0.1129
vn 0.1604 0.9852 -0.0603
vn 0.5616 -0.8239 0.0758
vn -0.4320 0.9013 -0.0306
vn -0.0291 -0.9949 0.0962
vn 0.5808 0.8026 -0.1358
vn -0.6240 -0.7814 0.0032
vn -0.8343 -0.5465 -0.0727
vn 0.9341 0.3524 -0.0576
vn -0.8957 0.2289 -0.3811
vn 0.0481 0.9978 0.0452
vn -0.8181 0.4250 0.3874
vn -0.3279 -0.9447 0.0040
vn -0.2229 0.9747 0.0135
vn -0.8931 0.0626 -0.4454
vn -0.3384 -0.9350 -0.1063
vn -0.4140 -0.8296 -0.3746
vn -0.7982 0.1852 -0.5733
vn 0.9810 0.0965 0.1684
vn -0.6476 -0.7619 0.0094
vn -0.1693 0.9855 -0.0103
vn -0.5616 -0.8239 0.0758
vn 0.3981 0.9173 0.0116
vn 0.0291 -0.9949 0.0962
vn -0.5256 0.8458 -0.0915
vn 0.6240 -0.7814 0.0032
vn 0.8092 -0.5833 0.0697
vn -0.9341 0.3524 -0.0576
vn 0.8957 0.2289 -0.3811
vn -0.0760 0.9970 0.0129
vn 0.3279 -0.9447 0.0040
vn -0.0023 0.9860 0.1668
vn 0.8931 0.0626 -0.4454
vn 0.3601 -0.9295 -0.0793
vn 0.3038 -0.8219 -0.4818
vn 0.7982 0.1852 -0.5733
vn 0.6476 -0.7619 0.0094
vn 0.1693 0.9855 -0.0103
vn 0.5198 -0.8540 0.0239
vn -0.3981 0.9173 0.0116
vn -0.1630 -0.9864 -0.0210
vn 0.5256 0.8458 -0.0915
vn -0.5782 -0.8155 -0.0245
vn -0.8092 -0.5833 0.0697
vn 0.9261 0.3623 -0.1057
vn -0.9705 0.0903 -0.2234
vn 0.0760 0.9970 0.0129
vn 0.0323 -0.9835 0.1783
vn 0.0023 0.9860 0.1668
vn -0.8328 0.1599 -0.5299
vn -0.3601 -0.9295 -0.0793
vn -0.3038 -0.8219 -0.4818
vn -0.9405 -0.2100 -0.2672
vn -0.6812 -0.7233 0.1129
vn -0.1604 0.9852 -0.0603
vn -0.5198 -0.8540 0.0239
vn 0.4320 0.9013 -0.0306
vn 0.1630 -0.9864 -0.0210
vn -0.5808 0.8026 -0.1358
vn 0.5782 -0.8155 -0.0245
vn 0.8343 -0.5465 -0.0727
vn -0.9261 0.3623 -0.1057
vn -0.3411 -0.8989 -0.2750
vn -0.2898 -0.8382 -0.4620
vn 0.3701 -0.8253 0.4265
vn 0.7200 -0.6440 0.2585
vn -0.9705 -0.0791 -0.2275
vn 0.0369 0.6639 0.7469
vn 0.3411 -0.8989 -0.2750
vn 0.2898 -0.8382 -0.4620
vn -0.6770 -0.6172 0.4010
vn -0.7200 -0.6440 0.2585
vn 0.9705 -0.0791 -0.2275
vn -0.0369 0.6639 0.7469
vn 0.6770 -0.6172 0.4010
vn -0.3701 -0.8253 0.4265
usemtl Glass
s off
f 25/1/1 6/2/1 30/3/1
f 35/4/2 8/5/2 7/6/2
f 30/3/3 8/5/3 34/7/3
f 23/8/4 24/9/4 25/10/4
f 25/1/5 33/11/5 29/12/5
f 24/9/4 30/13/4 25/10/4
f 35/4/6 37/14/6 34/15/6
f 30/3/7 37/14/7 33/11/7
f 35/4/4 30/13/4 31/16/4
f 25/1/8 4/17/8 6/2/8
f 35/4/9 34/15/9 8/5/9
f 30/3/10 6/2/10 8/5/10
f 25/1/11 30/3/11 33/11/11
f 24/9/4 31/16/4 30/13/4
f 35/4/12 36/18/12 37/14/12
f 30/3/13 34/7/13 37/14/13
f 35/4/4 34/15/4 30/13/4
usemtl Dark
f 4/17/14 5/19/14 6/2/14
f 2/20/15 9/21/15 4/17/15
f 1/22/16 2/20/16 23/23/16
f 24/24/17 1/22/17 23/25/17
f 25/1/18 2/20/18 4/17/18
f 6/2/19 7/6/19 8/5/19
f 24/24/20 5/19/20 3/26/20
f 31/27/21 7/6/21 5/19/21
f 3/26/22 9/21/22 10/28/22
f 2/20/23 1/22/23 11/29/23
f 1/22/24 10/28/24 11/30/24
f 12/31/25 17/32/25 16/33/25
f 12/31/26 14/34/26 11/30/26
f 9/21/27 14/35/27 13/36/27
f 10/28/28 15/37/28 11/30/28
f 16/33/29 22/38/29 21/39/29
f 16/33/30 20/40/30 15/37/30
f 19/41/31 20/40/31 21/39/31
f 19/41/32 22/38/32 18/42/32
f 29/12/33 32/43/33 28/44/33
f 39/45/34 27/46/34 29/12/34
f 26/47/35 23/23/35 27/46/35
f 24/24/36 26/47/36 28/44/36
f 27/46/37 25/1/37 29/12/37
f 33/11/38 36/18/38 32/43/38
f 32/43/39 24/24/39 28/44/39
f 36/18/40 31/27/40 32/43/40
f 28/44/41 39/45/41 29/12/41
f 27/46/42 41/48/42 26/47/42
f 26/47/43 40/49/43 28/44/43
f 42/50/44 47/51/44 41/52/44
f 44/53/45 42/50/45 41/52/45
f 39/45/46 44/54/46 41/48/46
f 45/55/47 40/49/47 41/52/47
f 46/56/48 52/57/48 47/51/48
f 50/58/49 46/56/49 45/55/49
f 49/59/50 50/58/50 48/60/50
f 52/57/51 49/59/51 48/60/51
f 4/17/52 3/26/52 5/19/52
f 2/20/53 11/29/53 9/21/53
f 24/24/54 3/26/54 1/22/54
f 25/1/55 23/61/55 2/20/55
f 6/2/56 5/19/56 7/6/56
f 24/24/57 31/27/57 5/19/57
f 31/27/58 35/62/58 7/6/58
f 3/26/59 4/17/59 9/21/59
f 1/22/60 3/26/60 10/28/60
f 12/31/61 11/30/61 17/32/61
f 12/31/62 13/63/62 14/34/62
f 9/21/63 11/29/63 14/35/63
f 10/28/64 16/33/64 15/37/64
f 16/33/65 17/32/65 22/38/65
f 16/33/66 21/39/66 20/40/66
f 19/41/67 18/42/67 20/40/67
f 19/41/68 21/39/68 22/38/68
f 29/12/69 33/11/69 32/43/69
f 39/45/70 41/48/70 27/46/70
f 24/24/71 23/25/71 26/47/71
f 27/46/72 23/61/72 25/1/72
f 33/11/73 37/14/73 36/18/73
f 32/43/74 31/27/74 24/24/74
f 36/18/75 35/62/75 31/27/75
f 28/44/76 40/49/76 39/45/76
f 26/47/77 41/52/77 40/49/77
f 42/50/78 46/56/78 47/51/78
f 44/53/79 43/64/79 42/50/79
f 39/45/80 43/65/80 44/54/80
f 45/55/81 46/56/81 40/49/81
f 46/56/82 51/66/82 52/57/82
f 50/58/83 51/66/83 46/56/83
f 49/59/84 51/66/84 50/58/84
f 52/57/85 51/66/85 49/59/85
usemtl Accent
f 10/28/86 9/21/86 12/31/86
f 12/31/87 9/21/87 13/63/87
f 17/32/88 20/40/88 22/38/88
f 11/30/89 15/37/89 17/32/89
f 10/28/90 12/31/90 16/33/90
f 18/42/91 22/38/91 20/40/91
f 40/49/92 42/50/92 39/45/92
f 42/50/93 43/64/93 39/45/93
f 47/51/94 50/58/94 45/55/94
f 41/52/95 47/51/95 45/55/95
f 40/49/96 46/56/96 42/50/96
f 48/60/97 50/58/97 52/57/97
f 17/32/98 15/37/98 20/40/98
f 47/51/99 52/57/99 50/58/99
l 30 38
