# Blender v2.80 (sub 75) OBJ File: 'Shroom.blend'
# www.blender.org
mtllib naturePack_068.mtl
o naturePack_068
v 0.788083 5.081020 -1.820000
v 1.576170 4.067050 -1.365000
v 0.788083 4.067050 -1.820000
v 1.576170 5.081020 -1.365000
v 0.788083 6.417300 -1.437800
v 1.245170 6.417300 -1.173900
v 0.788083 6.753050 -0.910000
v 0.330995 6.417300 -1.173900
v 0.000000 5.081020 -1.365000
v 0.000000 4.067050 -1.365000
v 0.805278 3.118959 -0.970048
v 1.576170 4.067050 -0.455000
v 1.576170 5.081020 -0.455000
v 1.245170 6.417300 -0.646100
v 0.788083 6.417300 -0.382200
v 0.330995 6.417300 -0.646100
v 0.000000 5.081020 -0.455000
v 0.000000 4.067050 -0.455000
v 0.788083 6.024826 -0.896714
v 0.608153 0.000000 -1.089930
v 0.608153 0.000000 -0.730070
v 0.968014 0.000000 -1.089930
v 0.968014 0.000000 -0.730070
v 0.788083 4.067050 0.000000
v 0.788083 5.081020 0.000000
vt 8.956690 200.039993
vt -26.870100 160.119995
vt 8.956690 160.119995
vt -26.870100 200.039993
vt 1.433070 229.722000
vt -26.870100 175.522995
vt 8.956690 175.522995
vt -19.346500 229.722000
vt -19.346500 97.555603
vt 1.433070 97.555603
vt -8.956690 119.884003
vt -55.173199 122.560997
vt -34.393700 122.560997
vt -44.783501 144.889999
vt -62.696899 182.981995
vt -34.393700 237.182007
vt -55.173199 237.182007
vt -26.870100 182.981995
vt -62.696899 160.119995
vt -26.870100 200.039993
vt -62.696899 200.039993
vt -26.870100 160.119995
vt -62.696899 122.316002
vt -34.751999 106.392998
vt -26.870100 122.316002
vt -18.988199 132.994995
vt 8.956690 148.917007
vt -26.870100 148.917007
vt 25.795300 119.694000
vt 53.740200 135.617004
vt 17.913401 135.617004
vt 53.740200 160.119995
vt 17.913401 200.039993
vt 17.913401 160.119995
vt 53.740200 200.039993
vt 53.740200 179.251999
vt 25.437000 233.451996
vt 17.913401 179.251999
vt 46.216499 233.451996
vt 46.216499 110.058998
vt 35.826801 132.386993
vt 25.437000 110.058998
vt 55.173199 147.567001
vt 44.783501 169.895996
vt 34.393700 147.567001
vt 19.346500 172.572998
vt 8.956690 194.901993
vt -1.433070 172.572998
vt -35.826801 182.399002
vt -46.216499 160.070007
vt -25.437000 160.070007
vt -53.740200 194.171997
vt -25.437000 248.371994
vt -46.216499 248.371994
vt -17.913401 194.171997
vt -53.740200 200.039993
vt -17.913401 160.119995
vt -17.913401 200.039993
vt -53.740200 160.119995
vt -45.858299 66.490601
vt -17.913401 82.413498
vt -53.740200 82.413498
vt -1.074800 53.189800
vt 26.870100 69.112701
vt -8.956690 69.112701
vt 26.870100 200.039993
vt -8.956690 160.119995
vt 26.870100 160.119995
vt -8.956690 200.039993
vt 19.346500 252.102005
vt -8.956690 197.901993
vt 26.870100 197.901993
vt -1.433070 252.102005
vt 26.870100 190.442001
vt 55.173199 244.641998
vt 34.393700 244.641998
vt 62.696899 190.442001
vt 62.696899 200.039993
vt 62.696899 160.119995
vt 26.870100 95.714302
vt 54.814999 79.791397
vt 62.696899 95.714302
vt -31.328499 152.353989
vt -42.910599 0.407428
vt -28.742901 0.407428
vt 42.910599 -0.648515
vt 31.328499 151.297989
vt 28.742901 -0.648515
vt -26.528601 151.216995
vt -38.110802 -0.730193
vt -23.943001 -0.730193
vt 35.525200 152.436005
vt 23.943001 0.489106
vt 38.110802 0.489106
vn 0.4963 0.1211 -0.8597
vn 0.5000 0.0000 -0.8660
vn 0.4853 0.2404 -0.8406
vn 0.2960 0.8059 -0.5127
vn -0.2960 0.8059 -0.5127
vn -0.4963 0.1211 -0.8596
vn -0.4853 0.2404 -0.8406
vn -0.4963 0.1211 -0.8597
vn -0.5000 0.0000 -0.8660
vn -0.0024 -0.6675 -0.7446
vn 0.3175 -0.7619 -0.5646
vn -0.3932 -0.6177 -0.6811
vn 0.6426 -0.6742 -0.3640
vn 0.7759 -0.6309 0.0000
vn 1.0000 0.0000 0.0000
vn 0.9926 0.1211 0.0000
vn 0.9707 0.2404 0.0000
vn 0.5920 0.8059 0.0000
vn 0.2960 0.8059 0.5127
vn -0.2960 0.8059 0.5127
vn -0.5920 0.8059 0.0000
vn -0.9926 0.1211 -0.0000
vn -0.9707 0.2404 0.0000
vn -1.0000 0.0000 0.0000
vn -0.3083 -0.7963 0.5204
vn -0.6073 -0.7098 0.3569
vn -0.7622 -0.6474 0.0000
vn -0.0021 -0.7152 0.6989
vn -0.4963 0.1211 0.8597
vn -0.5000 -0.0000 0.8660
vn -0.4853 0.2404 0.8406
vn 0.4963 0.1211 0.8597
vn 0.4853 0.2404 0.8406
vn 0.5000 0.0000 0.8660
vn 0.3759 -0.6594 0.6511
vn 0.0000 1.0000 0.0022
vn -0.7059 0.0438 -0.7069
vn -0.7070 0.0406 0.7060
vn 0.7059 0.0438 -0.7069
vn 0.9996 0.0299 0.0000
vn 0.0000 0.0276 0.9996
usemtl Fall_Leafs
s 1
f 1/1/1 2/2/2 3/3/2
f 2/2/2 1/1/1 4/4/1
f 5/5/3 4/6/1 1/7/1
f 4/6/1 5/5/3 6/8/3
f 6/9/4 5/10/4 7/11/4
f 5/12/5 8/13/5 7/14/5
f 1/15/6 8/16/7 5/17/7
f 8/16/7 1/15/6 9/18/8
f 3/19/9 9/20/8 1/21/6
f 9/20/8 3/19/9 10/22/9
f 3/23/10 11/24/11 10/25/12
f 11/26/11 3/27/10 2/28/13
f 11/29/11 2/30/13 12/31/14
f 2/32/15 13/33/16 12/34/15
f 13/33/16 2/32/15 4/35/16
f 4/36/16 14/37/17 13/38/16
f 14/37/17 4/36/16 6/39/17
f 6/40/18 7/41/18 14/42/18
f 14/43/19 7/44/19 15/45/19
f 15/46/20 7/47/20 16/48/20
f 7/49/21 8/50/21 16/51/21
f 9/52/22 16/53/23 8/54/23
f 16/53/23 9/52/22 17/55/22
f 9/56/22 18/57/24 17/58/22
f 18/57/24 9/56/22 10/59/24
f 11/60/25 18/61/26 10/62/27
f 11/63/25 24/64/28 18/65/26
f 25/66/29 18/67/30 24/68/30
f 18/67/30 25/66/29 17/69/29
f 15/70/31 17/71/29 25/72/29
f 17/71/29 15/70/31 16/73/31
f 25/74/32 14/75/33 15/76/33
f 14/75/33 25/74/32 13/77/32
f 24/68/34 13/78/32 25/66/32
f 13/78/32 24/68/34 12/79/34
f 24/80/28 11/81/25 12/82/35
usemtl Wood
f 19/83/36 20/84/37 21/85/38
f 22/86/39 19/87/36 23/88/40
f 19/89/36 22/90/39 20/91/37
f 19/92/36 21/93/38 23/94/41
