# Blender v2.80 (sub 75) OBJ File: 'Pine.blend'
# www.blender.org
mtllib naturePack_051.mtl
o naturePack_051
v 0.973128 4.778169 -1.080390
v 0.180154 3.370650 -0.701641
v 0.180154 3.427440 -1.565540
v 0.927728 3.396340 -2.000500
v 0.816352 5.203803 -0.977717
v 0.927728 3.282760 -0.272702
v 0.000000 2.514120 -0.554700
v 0.960769 2.514120 0.000000
v 0.960769 4.797987 -1.124779
v 0.960769 2.514120 -2.218800
v 0.000000 2.514120 -1.664100
v 1.798858 3.285776 -1.592031
v 1.018940 4.198340 -1.741770
v 0.442525 4.149810 -1.402840
v 0.442525 4.204420 -0.734530
v 1.018940 4.307570 -0.405142
v 1.675300 3.251660 -0.707660
v 1.595350 4.356100 -0.744067
v 1.595350 4.301480 -1.412380
v 0.923111 6.310910 -1.144199
v 0.924714 5.327730 -1.618560
v 0.510558 5.341930 -1.378090
v 0.510558 5.314300 -0.899631
v 0.924714 5.272470 -0.661648
v 0.996824 6.681995 -1.078700
v 1.338870 5.258270 -0.902121
v 1.338870 5.285900 -1.380580
v 1.921540 2.514120 -0.554700
v 0.775285 0.000000 -0.923916
v 1.146250 0.000000 -0.923916
v 1.146250 0.000000 -1.294880
v 0.775285 0.000000 -1.294880
v 1.921540 2.514120 -1.664100
vt -36.394501 106.003998
vt -65.476700 138.856995
vt -70.442101 104.681999
vt -31.641500 161.735001
vt -61.432701 128.830994
vt -27.432199 126.431000
vt 23.445700 172.798004
vt -6.739290 135.024002
vt 27.177099 131.406998
vt 25.181999 131.539001
vt -10.919300 98.384399
vt 32.757900 98.384399
vt -30.125700 127.167000
vt -65.515701 90.899200
vt -21.838600 90.899200
vt -41.466900 106.556999
vt -76.434998 68.443703
vt -32.757900 68.443703
vt 10.457800 99.521500
vt -19.831900 136.395004
vt -23.455200 95.873398
vt 62.957298 110.421997
vt 34.204399 151.613007
vt 28.950199 108.115997
vt 64.638702 165.639008
vt 36.889999 123.540001
vt 70.940002 122.281998
vt -3.864730 189.153000
vt -29.713200 147.929993
vt -3.591820 143.766998
vt 15.330300 268.179993
vt 0.649074 212.921005
vt 19.450399 211.227005
vt 56.659801 260.957001
vt 44.586800 204.720001
vt 63.441101 204.151001
vt 69.135597 160.378006
vt 45.644100 198.774002
vt 42.818298 158.354996
vt 25.670000 173.035995
vt -0.194014 213.660995
vt -0.450070 168.865005
vt -37.700001 210.332001
vt -55.407101 164.201004
vt -29.097099 166.369003
vt -46.767502 204.438995
vt -69.680099 159.423004
vt -43.355400 157.498001
vt 53.821899 139.287994
vt 35.174900 179.350006
vt 27.520700 141.561005
vt 1.918870 183.356003
vt -12.794800 238.505005
vt -16.881399 181.649994
vt -44.264702 188.130997
vt -56.396000 243.832001
vt -63.118401 187.542007
vt -40.465302 262.335999
vt -53.881199 206.945999
vt -35.047501 205.806000
vt 54.963200 193.716995
vt 41.637798 249.550995
vt 36.127602 192.606995
vt 69.130402 115.382004
vt 32.757900 83.414101
vt 76.434998 83.414101
vt 2.439850 90.582397
vt -32.757900 53.473301
vt 10.919300 53.473301
vt 65.515701 60.958500
vt 29.143200 92.926102
vt 21.838600 60.958500
vt 41.684601 100.306000
vt 30.523001 1.264670
vt 45.128101 1.264670
vt -39.818100 100.101997
vt -50.979698 1.061220
vt -36.374599 1.061220
vt 50.979698 -1.569010
vt 39.818100 97.472099
vt 36.374599 -1.569010
vt -33.966499 97.268700
vt -45.128101 -1.772460
vt -30.523001 -1.772460
vn -0.7752 0.4306 -0.4623
vn -0.6567 0.6357 0.4057
vn -0.4431 0.4207 -0.7916
vn -0.7866 0.3496 0.5090
vn 0.0628 0.3471 0.9357
vn 0.0046 0.9999 0.0107
vn -0.7797 0.4388 0.4467
vn -0.0012 0.4307 0.9025
vn -0.7734 0.4480 -0.4485
vn -0.0011 0.4492 -0.8934
vn 0.4235 0.4658 -0.7770
vn 0.8987 0.4150 0.1416
vn 0.4855 0.3259 0.8112
vn -0.0211 0.5078 -0.8612
vn 0.7813 0.3319 -0.5285
vn -0.0645 0.2689 -0.9610
vn 0.0535 0.9975 0.0455
vn -0.7943 0.3476 0.4982
vn 0.0260 0.2824 0.9589
vn 0.4952 0.2231 0.8397
vn 0.4584 0.3268 0.8265
vn -0.5136 0.2752 0.8127
vn -0.8410 0.2448 -0.4824
vn -0.9755 0.2191 -0.0179
vn 0.9470 0.3203 -0.0262
vn 0.0258 0.3690 -0.9291
vn 0.8398 0.3031 -0.4504
vn -0.8008 0.3918 -0.4530
vn 0.9719 0.2352 0.0136
vn 0.4625 0.3798 0.8011
vn 0.7757 0.4413 -0.4512
vn 0.9223 0.3864 0.0000
vn 0.0001 1.0000 -0.0033
vn -0.7053 0.0568 0.7067
vn 0.0000 0.0418 0.9991
vn -0.7068 0.0523 -0.7054
vn 0.7068 0.0523 -0.7054
vn 0.9993 0.0386 0.0000
usemtl Leafs
s 1
f 3/1/1 5/2/2 4/3/3
f 5/4/2 3/5/1 2/6/4
f 5/7/2 2/8/4 6/9/5
f 1/10/6 7/11/7 8/12/8
f 1/13/6 11/14/9 7/15/7
f 1/16/6 10/17/10 11/18/9
f 4/19/11 5/20/11 12/21/11
f 12/22/12 5/23/12 17/24/12
f 5/25/2 6/26/5 17/27/13
f 20/28/14 19/29/15 13/30/16
f 25/31/17 23/32/18 24/33/19
f 25/34/17 24/35/19 26/36/20
f 18/37/21 20/38/21 16/39/21
f 16/40/22 20/41/22 15/42/22
f 20/43/14 14/44/23 15/45/24
f 20/46/14 13/47/16 14/48/23
f 19/49/15 20/50/14 18/51/25
f 21/52/26 25/53/17 27/54/27
f 22/55/28 25/56/17 21/57/26
f 25/58/17 22/59/28 23/60/18
f 27/61/27 25/62/17 26/63/29
f 1/64/6 8/65/8 28/66/30
f 1/67/6 33/68/31 10/69/10
f 33/70/31 1/71/6 28/72/32
usemtl Wood
f 9/73/33 29/74/34 30/75/35
f 9/76/33 32/77/36 29/78/34
f 31/79/37 9/80/33 30/81/38
f 9/82/33 31/83/37 32/84/36
