# Blender v2.80 (sub 75) OBJ File: ''
# www.blender.org
mtllib naturePack_061.mtl
o naturePack_061
v -0.193568 0.834556 0.047408
v 0.249596 0.034661 -0.262310
v -0.236498 0.042938 -0.251065
v 0.207912 0.834556 0.047408
v 0.178212 2.029350 0.073378
v 0.475312 2.029350 0.073378
v 0.003560 2.920450 -0.123597
v 0.002661 2.922957 0.107220
v 0.331228 2.081350 0.361347
v -0.193568 0.834556 0.448888
v -0.238618 0.009070 0.224581
v 0.233311 0.103426 0.285393
v 0.007172 3.245227 -0.007172
v -0.179878 3.084190 -0.194222
v -0.179878 3.084190 0.179878
v 0.194222 3.084190 -0.194222
v 0.194222 3.084190 0.179878
v 0.412072 3.250440 0.242228
v 0.400412 3.080206 -0.255625
v 0.988609 3.220999 -0.269573
v 1.092691 3.171972 0.254211
v 0.234302 2.946079 0.219958
v 0.247994 2.960525 -0.299809
v -0.233650 2.960524 0.285465
v -0.219958 2.946079 -0.234302
v -0.275188 3.319057 -0.736617
v -0.808089 3.314629 -0.291954
v -1.510227 2.798063 -0.205682
v -0.329134 3.083134 0.236658
v -0.974263 3.220999 0.255229
v -1.571178 2.719450 0.187122
v -0.248860 3.293229 0.546258
v -0.171410 2.771656 1.542859
v 0.225769 2.790746 1.526770
v 0.256572 3.250440 0.397728
v 0.264879 3.189271 1.043996
v 0.261837 3.298691 -0.529989
v 1.585522 2.719450 -0.201465
v 1.524570 2.798063 0.191339
v 0.185754 2.771656 -1.557202
v -0.211486 2.790398 -1.540613
vt -2.988190 46.501202
vt -25.984301 -0.550459
vt -0.000000 -0.550459
vt -22.996099 46.501202
vt -21.516001 132.807999
vt -22.996099 54.451000
vt -2.988190 54.451000
vt -36.321899 132.807999
vt -12.812134 192.768997
vt -36.321899 133.684998
vt -21.516001 133.684998
vt -14.805800 124.109001
vt -13.046000 184.104996
vt -24.594500 184.104996
vt 0.000000 124.109001
vt -16.100000 53.943199
vt -0.000000 134.451004
vt -14.805800 134.451004
vt 3.907850 53.943199
vt -16.100000 54.801601
vt -5.434410 10.213200
vt 3.907850 54.801601
vt -31.418699 10.213200
vt 16.100000 53.060200
vt 4.338727 13.701258
vt 31.418699 8.471820
vt 16.100000 57.805599
vt -0.000000 137.276993
vt -3.907850 57.805599
vt 14.805800 137.276993
vt 14.805800 116.934998
vt 13.046000 177.789993
vt -0.000000 116.934998
vt 24.594500 177.789993
vt 29.141529 132.906006
vt 2.988190 54.461800
vt 22.996099 54.461800
vt -0.000000 8.900890
vt 25.633837 14.232379
vt 2.988190 54.359402
vt -1.818900 7.253310
vt -24.165400 29.599800
vt -24.165400 7.253310
vt -1.818900 29.599800
vt -108.312485 84.491501
vt -122.144997 77.439796
vt -96.452698 77.439796
vt 122.144997 -42.024399
vt 108.312485 -34.972694
vt 96.452698 -42.024399
vt 109.298500 84.491501
vt 96.452698 77.439796
vt 122.144997 77.439796
vt 122.144997 96.452698
vt 96.452698 122.144997
vt 96.452698 96.452698
vt 122.144997 122.144997
vt -92.170700 133.832001
vt -122.144997 115.013000
vt -96.452698 115.013000
vt -126.427002 133.832001
vt 137.104996 92.170700
vt 167.026993 126.427002
vt 137.104996 126.427002
vt 167.026993 92.170700
vt 137.104996 24.409401
vt 182.477142 32.918617
vt 137.104996 40.944901
vt 189.479507 17.119410
vt -137.104996 92.170700
vt -144.498322 126.427002
vt -167.026993 92.170700
vt 126.427002 135.832993
vt 96.240089 120.406952
vt 122.144997 119.600998
vt -106.449997 40.944901
vt -93.853989 19.310549
vt -90.888702 29.527599
vt -59.118900 29.527599
vt -58.346252 18.422968
vt -43.557598 40.944901
vt -54.949078 36.249435
vt -81.492104 24.409401
vt -29.117523 17.119398
vt -81.492104 126.427002
vt -74.098991 92.170700
vt -51.570801 126.427002
vt -92.170700 -65.633698
vt -122.357605 -81.060417
vt -96.452698 -81.866402
vt 119.269997 29.527599
vt 103.709000 32.727142
vt 119.269997 18.110201
vt 122.144997 -58.761600
vt 92.170700 -39.942001
vt 96.452698 -58.761600
vt 126.427002 -39.942001
vt 63.987877 126.427002
vt 51.570801 92.170700
vt 81.492104 92.170700
vt 92.170700 24.715300
vt 126.427002 32.981014
vt 92.170700 56.588100
vt 77.817902 32.727142
vt 43.126431 36.558228
vt 21.255800 14.566900
vt -96.954002 3.514570
vt -126.427002 32.754398
vt -117.508003 3.514570
vt -92.170700 32.754398
vt -119.269997 29.527599
vt -114.130890 20.190544
vt -103.709000 40.944901
vt -21.255800 16.449631
vt -71.291687 40.944901
vt -72.969322 24.409401
vt -126.427010 36.223862
vt -92.170700 24.715300
vt -92.170700 56.588100
vt -92.170700 72.969322
vt -126.427002 81.492104
vt -126.427002 51.570801
vt 43.557598 40.944901
vt 56.153610 19.310545
vt 59.118900 29.527599
vt 90.888702 29.527599
vt 91.661354 18.422970
vt 106.449997 40.944901
vt -96.452698 -58.761600
vt -126.427002 -39.942001
vt -122.144997 -58.761600
vt -92.170700 -39.942001
vt 126.427002 81.492104
vt 92.170700 71.291687
vt 126.427002 51.570801
vt 92.170700 30.478001
vt 126.426994 49.869370
vt 92.170700 64.639397
vt 126.427002 32.754398
vt 98.182602 13.045782
vt 121.642998 3.514570
vt 81.492104 24.409401
vt 38.463806 34.136093
vt 32.201874 18.120810
vt 81.492104 40.944901
vt 96.452698 115.013000
vt 126.427002 133.832001
vt 92.170700 133.832001
vt 122.144997 115.013000
vt -109.298500 -34.972698
vt -122.144997 -42.024399
vt -96.452698 -42.024399
vt 151.039993 29.527599
vt 156.376129 20.270302
vt 166.600998 40.944901
vt -151.039993 29.527599
vt -166.600998 30.713406
vt -151.039993 18.110201
vt -141.679688 30.713406
vt -175.471069 36.558247
vt -197.341003 14.566900
vt 121.642998 -155.393997
vt 92.170700 -126.154999
vt 101.089996 -155.393997
vt 126.427002 -126.154999
vt -126.427002 -183.197998
vt -92.170700 -174.932205
vt -126.427002 -151.324997
vt 197.341003 15.614262
vt 145.203262 40.944901
vt 144.608612 24.409401
vt 92.170700 -170.262405
vt 126.427002 -183.197998
vt 126.427002 -151.324997
vt -126.427002 144.608612
vt -92.170700 137.104996
vt -92.170700 167.026993
vt -137.104996 24.409401
vt -158.292068 37.985428
vt -185.038116 18.561459
vt -126.427002 -163.505997
vt -92.170700 -141.745880
vt -126.427002 -129.345001
vt -118.386780 -152.513123
vt -96.954002 -155.393997
vt -92.170700 -126.154999
vt -96.452705 96.452705
vt -122.145004 122.145004
vt -122.144997 96.452698
vt -96.452698 122.144997
vn -0.0003 0.1957 -0.9807
vn 0.6433 -0.3635 -0.6738
vn -0.6301 -0.3420 -0.6972
vn -0.0051 0.1987 -0.9800
vn -0.0000 0.0126 -0.9999
vn -0.2677 0.5780 -0.7709
vn 0.9227 0.1855 -0.3380
vn 0.0088 -0.1271 -0.9919
vn -0.9055 -0.0589 0.4203
vn -0.3231 0.9071 0.2699
vn 0.3619 0.2478 0.8987
vn -0.9636 0.2604 0.0609
vn -0.8349 0.2152 0.5066
vn -0.8999 0.1417 0.4125
vn -0.4111 0.1346 0.9016
vn -0.9998 0.0174 0.0017
vn -0.6097 -0.6251 0.4874
vn -0.9998 0.0174 0.0001
vn 0.9973 0.0044 -0.0733
vn 0.6720 -0.5230 0.5243
vn 0.9208 -0.0988 0.3773
vn 0.8794 -0.1133 0.4624
vn 0.2650 -0.0735 0.9614
vn -0.0022 -0.1744 0.9847
vn -0.0000 1.0000 0.0000
vn -0.3677 0.8542 -0.3677
vn -0.3677 0.8542 0.3677
vn 0.3677 0.8542 -0.3677
vn 0.6524 0.7578 0.0000
vn 0.0000 0.7578 0.6524
vn -0.4445 0.8882 -0.1164
vn 0.2206 0.9242 -0.3118
vn -0.6067 0.7950 0.0000
vn -0.1411 0.8373 -0.5282
vn -0.0760 0.9869 -0.1424
vn 0.2241 0.6898 -0.6885
vn -0.2009 0.7809 -0.5914
vn 0.3441 0.6247 0.7009
vn -0.0154 -0.0924 0.9956
vn -0.0243 -0.0588 0.9980
vn 0.7678 0.0340 0.6398
vn -0.0075 -0.9915 -0.1296
vn 0.2612 -0.9490 -0.1764
vn -0.1152 -0.9448 -0.3067
vn 0.2338 -0.9715 0.0393
vn -0.6435 0.7571 -0.1128
vn -0.7078 0.1380 -0.6928
vn -0.6812 0.3794 -0.6262
vn -0.1806 0.6285 -0.7565
vn -0.7667 0.1196 -0.6307
vn 0.0074 -0.9909 0.1346
vn -0.4133 -0.8955 0.1648
vn 0.1153 -0.9463 0.3021
vn -0.2945 -0.9546 -0.0449
vn -0.3344 0.9307 0.1486
vn 0.1849 0.8449 0.5019
vn -0.9290 0.3145 0.1952
vn -0.0071 1.0000 0.0000
vn 0.3262 0.9382 0.1153
vn -0.2570 0.6743 0.6923
vn 0.1729 0.7182 0.6740
vn -0.8586 -0.3915 -0.3310
vn 0.2834 -0.9479 -0.1457
vn -0.0002 -0.1343 0.9909
vn -0.9629 0.2387 0.1260
vn -0.5361 -0.3303 0.7769
vn 0.5642 -0.0029 0.8257
vn 0.0414 -0.9878 -0.1504
vn -0.0472 -0.9919 -0.1182
vn 0.9963 -0.0250 -0.0820
vn 0.9586 0.1061 0.2642
vn 0.6542 0.3797 0.6542
vn -0.3792 0.1547 0.9123
vn 0.0000 0.7950 -0.6067
vn 0.0398 0.9880 -0.1493
vn -0.0756 0.8599 -0.5048
vn 0.0154 0.9735 -0.2280
vn 0.1109 0.9895 0.0922
vn 0.7297 0.5617 0.3899
vn -0.0723 0.8810 0.4676
vn 0.6553 0.7497 0.0925
vn 0.0000 0.8427 0.5384
vn 0.8939 0.3604 -0.2667
vn 0.0068 -0.1266 -0.9919
vn 0.8672 -0.4477 0.2182
vn -0.2942 -0.9449 0.1435
vn 0.5139 -0.3094 -0.8001
vn -0.5466 0.1184 -0.8290
vn -0.0403 -0.9878 0.1504
vn 0.0472 -0.9918 0.1185
usemtl Wood
s 1
f 1/1/1 2/2/2 3/3/3
f 2/2/2 1/1/1 4/4/4
f 5/5/5 4/6/5 1/7/5
f 4/6/5 5/5/5 6/8/5
f 7/9/6 6/10/7 5/11/8
f 5/12/9 8/13/10 7/14/6
f 8/13/10 5/12/9 9/15/11
f 1/16/12 9/17/13 5/18/14
f 9/17/13 1/16/12 10/19/15
f 1/20/16 11/21/17 10/22/18
f 11/21/17 1/20/16 3/23/3
f 4/24/19 12/25/20 2/26/2
f 4/27/19 9/28/21 12/29/20
f 9/28/21 4/27/19 6/30/22
f 6/31/7 8/32/10 9/33/11
f 8/32/10 6/31/7 7/34/6
f 9/35/13 10/36/15 12/37/23
f 11/38/17 12/39/20 10/40/24
f 11/41/17 2/42/2 12/43/20
f 2/42/2 11/41/17 3/44/3
usemtl Green_leafs
f 13/45/25 14/46/26 15/47/27
f 16/48/28 13/49/25 17/50/29
f 13/51/25 15/52/27 17/53/30
f 17/54/25 14/55/25 15/56/25
f 14/55/25 17/54/25 16/57/25
f 18/58/31 16/59/32 17/60/33
f 16/59/32 18/58/31 19/61/34
f 18/62/35 20/63/36 19/64/37
f 20/63/36 18/62/35 21/65/38
f 22/66/39 21/67/38 18/68/40
f 21/67/38 22/66/39 39/69/41
f 22/70/42 19/71/43 39/72/44
f 19/73/43 22/74/42 23/75/45
f 26/76/46 25/77/47 14/78/48
f 14/79/48 25/80/47 27/81/49
f 27/82/49 25/83/47 28/84/50
f 25/85/51 29/86/52 28/87/53
f 29/88/52 25/89/51 24/90/54
f 15/91/55 29/92/56 24/93/57
f 14/94/58 29/95/56 15/96/55
f 29/95/59 14/94/59 27/97/59
f 27/98/49 30/99/60 29/100/61
f 31/101/62 28/102/50 29/103/63
f 29/104/61 30/105/60 31/106/64
f 31/107/62 27/108/49 28/109/50
f 27/108/49 31/107/62 30/110/60
f 15/111/55 24/112/57 32/113/65
f 33/114/66 32/115/65 24/116/57
f 34/117/67 33/118/66 24/119/68
f 24/120/54 22/121/42 34/122/69
f 35/123/70 22/124/71 17/125/72
f 17/126/72 22/127/71 18/128/73
f 15/129/74 35/130/74 17/131/74
f 35/130/75 15/129/76 32/132/77
f 35/133/75 32/134/77 36/135/78
f 33/136/66 36/137/79 32/138/65
f 36/139/79 33/140/66 34/141/67
f 22/142/71 36/143/79 34/144/67
f 36/143/79 22/142/71 35/145/70
f 14/146/80 37/147/81 26/148/46
f 37/147/81 14/146/80 16/149/82
f 13/150/25 16/151/28 14/152/26
f 16/153/32 23/154/83 37/155/81
f 16/156/32 19/157/34 23/158/83
f 19/159/37 20/160/36 38/161/84
f 38/162/85 21/163/38 39/164/41
f 21/163/38 38/162/85 20/165/36
f 38/166/85 39/167/41 19/168/86
f 40/169/87 37/170/81 23/171/83
f 41/172/88 40/173/87 23/174/89
f 23/175/45 25/176/51 41/177/90
f 25/178/47 26/179/46 41/180/88
f 40/181/87 26/182/46 37/183/81
f 40/184/87 41/185/88 26/186/46
f 24/187/54 23/188/45 22/189/42
f 23/188/45 24/187/54 25/190/51
