# Blender v2.80 (sub 75) OBJ File: 'PaddleBoat.blend'
# www.blender.org
mtllib watercraftPack_028.mtl
o watercraftPack_028
v -0.750000 0.400000 -1.228020
v -0.750000 0.570000 -0.345460
v -0.750000 0.400000 -0.345460
v -0.850000 0.700000 -1.459700
v -0.750000 0.570000 0.084540
v -0.800000 0.700000 0.353629
v -0.750000 0.400000 0.084540
v -0.750000 0.400000 0.304382
v -0.441261 0.700000 0.995756
v -0.417522 0.400000 0.899501
v 0.000000 0.400000 1.137490
v 0.000000 0.700000 1.247275
v 0.850000 0.700000 -1.459700
v 0.750000 0.400000 -1.228020
v 0.750000 0.400000 -0.345460
v -0.892500 0.400000 0.503595
v -0.488250 0.400000 1.227180
v 0.750000 0.400000 0.084540
v 0.000000 0.400000 1.505480
v -0.372000 -0.000000 0.551304
v 0.000000 -0.000000 0.763344
v 0.680000 0.000000 -1.290060
v -0.680000 0.000000 0.000000
v -0.680000 0.000000 -1.290060
v -0.892500 0.400000 -1.459700
v 0.892500 0.400000 -1.459700
v 0.800000 0.700000 0.353629
v 0.441261 0.700000 0.995756
v 0.488250 0.400000 1.227180
v 0.372000 -0.000000 0.551304
v 0.680000 -0.000000 -0.000000
v 0.892500 0.400000 0.503595
v 0.750000 0.400000 0.304382
v 0.417522 0.400000 0.899501
v 0.750000 0.570000 0.084540
v 0.750000 0.570000 -0.345460
vt 48.347401 15.748000
vt 13.600800 22.440901
vt 13.600800 15.748000
vt 48.347401 27.559099
vt -3.328350 22.440901
vt -11.983500 27.559099
vt -3.328350 15.748000
vt -11.983500 15.748000
vt -22.898800 27.559099
vt 3.939650 15.748000
vt 3.939650 27.559099
vt -22.898800 15.748000
vt -3.256000 27.559099
vt -22.176701 15.748000
vt -3.256000 15.748000
vt -22.176701 27.559099
vt -29.527599 15.748000
vt 29.527599 27.559099
vt -29.527599 27.559099
vt 29.527599 15.748000
vt 29.527599 -11.983500
vt 29.527599 48.347401
vt 29.527599 13.600800
vt 35.137798 -19.826599
vt 19.222401 -48.314201
vt 16.437901 -35.413399
vt -0.000000 -59.271000
vt -0.000000 -44.783001
vt -1.975500 22.186501
vt 29.351200 52.058701
vt 7.225340 52.058701
vt 14.882300 22.186501
vt 14.645700 -21.704901
vt -26.771700 50.789902
vt 0.000000 -30.052900
vt 26.771700 -0.000000
vt 26.771700 50.789902
vt 0.000000 12.560100
vt -57.468498 30.392401
vt -50.789902 12.560100
vt 19.826599 30.392401
vt -13.057100 17.133101
vt 32.803001 40.286999
vt 0.171066 40.286999
vt 11.805300 17.133101
vt 28.603500 16.279800
vt 0.171066 3.990560
vt 32.803001 3.990560
vt -2.474580 16.279800
vt 15.861300 22.592699
vt -57.468498 10.663700
vt 19.826599 10.663700
vt -57.468498 22.592699
vt 33.464600 27.559099
vt -35.137798 15.748000
vt 35.137798 15.748000
vt -33.464600 27.559099
vt -29.351200 -5.866660
vt -5.385170 6.989240
vt -26.457399 6.989240
vt -7.225340 -5.866660
vt -29.351200 52.058701
vt 1.975500 22.186501
vt -7.225340 52.058701
vt -14.882300 22.186501
vt -14.645700 -21.704901
vt -26.771700 -0.000000
vt 57.468498 30.392401
vt -0.000000 12.560100
vt 50.789902 12.560100
vt -19.826599 30.392401
vt -35.137798 -19.826599
vt -29.527599 -11.983500
vt -35.137798 57.468498
vt -19.222401 -48.314201
vt -16.437901 -35.413399
vt 22.176701 27.559099
vt 3.256000 15.748000
vt 22.176701 15.748000
vt 3.256000 27.559099
vt -3.939650 27.559099
vt 22.898800 15.748000
vt 22.898800 27.559099
vt -3.939650 15.748000
vt 11.983500 27.559099
vt 3.328350 22.440901
vt 11.983500 15.748000
vt -48.347401 27.559099
vt -13.600800 22.440901
vt -13.600800 15.748000
vt -48.347401 15.748000
vt -29.527599 48.347401
vt -29.527599 13.600800
vt 35.137798 57.468498
vt -26.771700 19.829901
vt 35.137798 36.935501
vt -35.137798 36.935501
vt 26.771700 19.829901
vt -29.527599 -3.328350
vt 3.328350 15.748000
vt 29.527599 -3.328350
vt -0.171066 3.990560
vt -28.603500 16.279800
vt -32.803001 3.990560
vt 2.474580 16.279800
vt 57.468498 10.663700
vt -15.861300 22.592699
vt -19.826599 10.663700
vt 57.468498 22.592699
vt -32.803001 40.286999
vt 13.057100 17.133101
vt -0.171066 40.286999
vt -11.805300 17.133101
vt 26.457399 6.989240
vt 7.225340 -5.866660
vt 29.351200 -5.866660
vt 5.385170 6.989240
vt -29.527599 48.347401
vt 29.527599 13.600800
vt 29.527599 48.347401
vt -29.527599 13.600800
vt -16.437901 -35.413399
vt -29.527599 -3.328350
vt -29.527599 -11.983500
vt 29.527599 -3.328350
vt 16.437901 -35.413399
vt 29.527599 -11.983500
vt 29.527599 22.440901
vt -29.527599 15.748000
vt 29.527599 15.748000
vt -29.527599 22.440901
vt 29.527599 -3.328350
vt -29.527599 13.600800
vt -29.527599 -3.328350
vt 29.527599 13.600800
vt -29.527599 15.748000
vt 29.527599 22.440901
vt -29.527599 22.440901
vt 29.527599 15.748000
vn 1.0000 0.0000 0.0000
vn -0.8001 0.5998 -0.0027
vn 0.8136 0.5814 -0.0052
vn 0.9590 0.2783 -0.0536
vn 0.9681 0.2415 0.0666
vn -0.8202 0.5701 0.0470
vn 0.9832 -0.0000 0.1827
vn 0.9864 0.1644 0.0000
vn -0.7136 0.5761 0.3987
vn 0.8516 0.2200 -0.4758
vn 0.3460 0.9181 -0.1933
vn 0.1674 0.9411 -0.2937
vn 0.4719 0.3030 -0.8279
vn -0.0590 0.9929 0.1035
vn 0.0000 0.6112 0.7915
vn 0.0000 0.7665 -0.6423
vn -0.0001 -1.0000 -0.0000
vn 0.0001 -1.0000 -0.0000
vn -0.8404 0.5174 -0.1617
vn 0.0000 -1.0000 0.0000
vn -0.2611 -0.8498 0.4580
vn -0.8831 -0.4692 -0.0000
vn -0.5938 -0.7331 0.3317
vn -0.7768 0.4564 0.4340
vn -0.9873 0.1572 0.0243
vn -0.9556 0.2946 0.0000
vn 0.0000 0.0000 -1.0000
vn 0.3966 0.5988 0.6958
vn -0.1674 0.9411 -0.2937
vn 0.0590 0.9929 0.1035
vn 0.2611 -0.8498 0.4580
vn 0.8831 -0.4692 -0.0000
vn -0.4719 0.3030 -0.8279
vn 0.6396 0.6806 0.3573
vn -0.8516 0.2200 -0.4758
vn -0.7543 0.5035 -0.4214
vn -0.9561 0.2824 0.0777
vn -0.9413 0.3371 0.0162
vn -0.9830 0.1454 0.1124
vn 0.9769 0.2127 0.0208
vn -0.9112 0.4105 -0.0339
vn -0.9960 0.0000 -0.0894
vn -0.9487 0.3162 0.0000
vn 0.0000 -0.3904 -0.9206
vn -1.0000 -0.0000 0.0000
vn -0.8944 -0.4473 0.0000
vn 0.7768 0.4564 0.4340
vn 0.9556 0.2946 0.0000
vn 0.9897 0.1402 0.0273
vn 0.5938 -0.7331 0.3317
vn -0.3966 0.5988 0.6958
vn 0.0000 1.0000 0.0000
vn 0.0000 -0.0000 1.0000
usemtl Wood
s 1
f 1/1/1 2/2/1 3/3/1
f 4/4/2 2/2/3 1/1/4
f 4/4/2 5/5/5 2/2/3
f 6/6/6 5/5/5 4/4/2
f 6/6/6 7/7/7 5/5/5
f 7/7/8 6/6/8 8/8/8
f 9/9/9 8/10/10 6/11/11
f 8/10/10 9/9/10 10/12/10
f 9/13/12 11/14/13 10/15/13
f 11/14/13 9/13/12 12/16/14
f 1/17/15 13/18/16 4/19/16
f 13/18/16 1/17/15 14/20/15
f 8/21/17 1/22/18 3/23/19
f 8/21/17 16/24/20 1/22/18
f 16/24/20 8/21/17 17/25/20
f 17/25/20 8/21/17 10/26/20
f 19/27/20 10/26/20 11/28/20
f 17/25/20 10/26/20 19/27/20
f 20/29/21 19/30/21 17/31/21
f 19/30/21 20/29/21 21/32/21
f 20/33/20 22/34/20 21/35/20
f 23/36/20 22/34/20 20/33/20
f 22/34/20 23/36/20 24/37/20
f 23/38/22 25/39/22 24/40/22
f 25/39/22 23/38/22 16/41/22
f 23/42/23 17/43/23 16/44/23
f 17/43/23 23/42/23 20/45/23
f 9/46/9 16/47/24 17/48/24
f 16/47/24 9/46/9 6/49/11
f 6/50/6 25/51/25 16/52/26
f 25/51/25 6/50/6 4/53/2
f 4/54/16 26/55/27 25/56/27
f 26/55/27 4/54/16 13/57/16
f 19/58/28 28/59/29 12/60/30
f 28/59/29 19/58/28 29/61/28
f 19/62/31 30/63/31 29/64/31
f 30/63/31 19/62/31 21/65/31
f 21/35/20 22/34/20 30/66/20
f 30/66/20 22/34/20 31/67/20
f 26/68/32 31/69/32 22/70/32
f 31/69/32 26/68/32 32/71/32
f 32/72/20 33/73/20 26/74/20
f 29/75/20 33/73/20 32/72/20
f 29/75/20 34/76/20 33/73/20
f 19/27/20 34/76/20 29/75/20
f 19/27/20 11/28/20 34/76/20
f 12/77/30 34/78/33 11/79/33
f 34/78/33 12/77/30 28/80/29
f 27/81/34 34/82/35 28/83/36
f 34/82/35 27/81/35 33/84/35
f 27/85/37 35/86/38 33/87/39
f 35/86/38 27/85/37 13/88/40
f 35/86/38 13/88/40 36/89/41
f 36/89/41 13/88/40 15/90/42
f 15/90/43 13/88/43 14/91/43
f 14/92/20 26/74/20 15/93/20
f 1/22/18 26/74/20 14/92/20
f 1/22/18 25/94/20 26/74/20
f 25/94/20 1/22/18 16/24/20
f 22/95/44 25/96/44 26/97/44
f 25/96/44 22/95/44 24/98/44
f 15/93/20 26/74/20 18/99/20
f 18/99/20 26/74/20 33/73/20
f 18/100/45 33/87/45 35/86/45
f 15/93/20 7/101/46 3/23/19
f 7/101/46 15/93/20 18/99/20
f 8/21/17 3/23/19 7/101/46
f 32/102/47 28/103/47 29/104/47
f 28/103/36 32/102/47 27/105/34
f 26/106/48 27/107/48 32/108/48
f 27/107/37 26/106/49 13/109/40
f 29/110/50 31/111/50 32/112/50
f 31/111/50 29/110/50 30/113/50
f 12/114/14 17/115/51 19/116/51
f 17/115/51 12/114/14 9/117/12
usemtl Material.001
f 1/118/52 15/119/52 14/120/52
f 15/119/52 1/118/52 3/121/52
f 10/122/52 7/123/52 8/124/52
f 7/123/52 10/122/52 18/125/52
f 18/125/52 10/122/52 11/28/52
f 18/125/52 34/126/52 33/127/52
f 18/125/52 11/28/52 34/126/52
usemtl Material.002
f 35/128/53 7/129/53 18/130/53
f 7/129/53 35/128/53 5/131/53
f 35/132/52 2/133/52 5/134/52
f 2/133/52 35/132/52 36/135/52
f 15/136/27 2/137/27 36/138/27
f 2/137/27 15/136/27 3/139/27
